HIERARCHY
ROOT Hips
{
	OFFSET -3.958830 18.904000 13.208200
	CHANNELS 6 Xposition Yposition Zposition Zrotation Yrotation Xrotation 
	JOINT LHipJoint
	{
		OFFSET 0.000000 0.000000 0.000000
		CHANNELS 3 Zrotation Yrotation Xrotation
		JOINT LeftUpLeg
		{
			OFFSET 1.800000 -1.400000 0.085000
			CHANNELS 3 Zrotation Yrotation Xrotation
			JOINT LeftLeg
			{
				OFFSET 2.215000 -6.000000 0.000000
				CHANNELS 3 Zrotation Yrotation Xrotation
				JOINT LeftFoot
				{
					OFFSET 2.500000 -6.900000 0.000000
					CHANNELS 3 Zrotation Yrotation Xrotation
					JOINT LeftToeBase
					{
						OFFSET 0.200000 -0.500000 1.950000
						CHANNELS 3 Zrotation Yrotation Xrotation
						End Site
						{
							OFFSET 0.000000 0.000000 0.000000
						}
					}
				}
			}
		}
	}
	JOINT RHipJoint
	{
		OFFSET 0.000000 0.000000 0.000000
		CHANNELS 3 Zrotation Yrotation Xrotation
		JOINT RightUpLeg
		{
			OFFSET -1.800000 -1.400000 0.085000
			CHANNELS 3 Zrotation Yrotation Xrotation
			JOINT RightLeg
			{
				OFFSET -2.215000 -6.000000 0.000000
				CHANNELS 3 Zrotation Yrotation Xrotation
				JOINT RightFoot
				{
					OFFSET -2.500000 -6.900000 0.000000
					CHANNELS 3 Zrotation Yrotation Xrotation
					JOINT RightToeBase
					{
						OFFSET -0.200000 -0.500000 1.950000
						CHANNELS 3 Zrotation Yrotation Xrotation
						End Site
						{
							OFFSET 0.000000 0.000000 0.000000
						}
					}
				}
			}
		}
	}
	JOINT LowerBack
	{
		OFFSET 0.000000 0.000000 0.000000
		CHANNELS 3 Zrotation Yrotation Xrotation
		JOINT Spine
		{
			OFFSET -0.087000 1.940000 -0.288900
			CHANNELS 3 Zrotation Yrotation Xrotation
			JOINT Spine1
			{
				OFFSET 0.000000 1.950000 0.060000
				CHANNELS 3 Zrotation Yrotation Xrotation
				JOINT Neck
				{
					OFFSET 0.000000 0.000000 0.000000
					CHANNELS 3 Zrotation Yrotation Xrotation
					JOINT Neck1
					{
						OFFSET 0.000000 1.600000 0.340000
						CHANNELS 3 Zrotation Yrotation Xrotation
						JOINT Head
						{
							OFFSET 0.000000 1.667000 -0.240000
							CHANNELS 3 Zrotation Yrotation Xrotation
							End Site
							{
								OFFSET 0.000000 0.000000 0.000000
							}
						}
					}
				}
				JOINT LeftShoulder
				{
					OFFSET 0.000000 0.000000 0.000000
					CHANNELS 3 Zrotation Yrotation Xrotation
					JOINT LeftArm
					{
						OFFSET 2.700000 1.550000 -0.730000
						CHANNELS 3 Zrotation Yrotation Xrotation
						JOINT LeftForeArm
						{
							OFFSET 5.450000 0.000000 0.000000
							CHANNELS 3 Zrotation Yrotation Xrotation
							JOINT LeftHand
							{
								OFFSET 3.450000 0.000000 0.000000
								CHANNELS 3 Zrotation Yrotation Xrotation
								JOINT LeftHandIndex1
								{
									OFFSET 0.750000 0.000000 0.000000
									CHANNELS 3 Zrotation Yrotation Xrotation
									End Site
									{
										OFFSET 0.000000 0.000000 0.000000
									}
								}
							}
						}
					}
				}
				JOINT RightShoulder
				{
					OFFSET 0.000000 0.000000 0.000000
					CHANNELS 3 Zrotation Yrotation Xrotation
					JOINT RightArm
					{
						OFFSET -2.700000 1.550000 -0.730000
						CHANNELS 3 Zrotation Yrotation Xrotation
						JOINT RightForeArm
						{
							OFFSET -5.450000 0.000000 0.000000
							CHANNELS 3 Zrotation Yrotation Xrotation
							JOINT RightHand
							{
								OFFSET -3.450000 0.000000 0.000000
								CHANNELS 3 Zrotation Yrotation Xrotation
								JOINT RightHandIndex1
								{
									OFFSET -0.750000 0.000000 0.000000
									CHANNELS 3 Zrotation Yrotation Xrotation
									End Site
									{
										OFFSET 0.000000 0.000000 0.000000
									}
								}
							}
						}
					}
				}
			}
		}
	}
}
MOTION
Frames: 12
Frame Time: 0.016667
1.111630 16.475860 -2.345360 -3.100906 3.877875 -3.884774 -15.490872 10.813992 5.664079 25.947731 -0.485649 -42.359345 -14.302385 18.753519 42.911506 0.632210 10.287552 0.707763 0.403660 0.449560 0.182370 18.264536 -10.934256 1.117547 -26.932929 0.320060 -1.214740 7.689192 -11.752090 32.459866 -0.687947 -6.895672 1.800591 0.353860 0.060180 0.066050 -3.200496 0.357296 -8.326056 -0.701551 9.241509 21.111914 1.674815 10.142796 14.791441 -0.417798 3.358217 -7.845556 4.274040 -5.122358 40.589542 7.563910 -5.270220 -12.270830 -13.502919 -8.100009 2.194379 -11.322926 -9.528737 -0.377330 136.569553 -72.565718 -127.758453 -3.683527 3.338888 0.162540 -0.021770 0.088690 0.123960 14.469178 11.612840 4.980531 35.498673 19.205669 2.450258 143.369416 60.670571 108.323255 2.233095 -1.504753 -0.022570 0.222850 -0.075490 -0.001840 
1.137940 16.506940 -2.324210 -3.192107 4.084236 -3.660680 -15.468185 10.882478 5.568470 25.119063 -0.648006 -42.372316 -13.323448 18.189521 42.919094 0.587045 10.116240 0.766876 0.396200 0.438960 0.178630 18.272244 -10.998529 1.137116 -26.037959 0.320610 -1.578234 7.511084 -11.589638 32.577572 -0.670748 -6.844372 1.825905 0.353250 0.073460 0.067160 -3.242926 0.418007 -8.253690 -0.411276 9.187876 21.026203 1.338163 10.049260 14.905709 -0.109452 3.446454 -7.950977 4.591468 -5.215211 39.244169 7.361060 -5.394400 -12.445910 -11.543816 -6.550958 1.864381 -11.239890 -7.843152 -0.580397 143.138106 -72.721999 -135.748128 -3.650163 3.482711 0.154130 -0.010480 0.076370 0.122930 11.891368 9.763296 5.160363 33.097614 17.304000 3.508546 150.950921 57.257060 116.392727 2.169909 -1.723833 -0.029060 0.228140 -0.069860 -0.001460 
1.155320 16.540580 -2.313790 -3.143371 4.327552 -3.514641 -15.446729 10.967735 5.437798 24.005523 -0.890923 -42.362277 -11.926330 17.520785 43.280280 0.541935 9.925489 0.827151 0.392370 0.435590 0.180280 18.273604 -11.082387 1.165440 -25.204802 0.349242 -1.965368 7.269837 -11.393948 32.677098 -0.655809 -6.793262 1.846577 0.354720 0.075800 0.072920 -3.273747 0.504859 -8.163700 -0.438411 9.279591 20.876539 0.969540 10.065057 15.193959 0.301506 3.927541 -8.228674 5.714652 -5.243223 38.206751 6.899100 -4.945140 -12.312670 -9.852109 -5.656807 1.714387 -10.746578 -6.747071 -0.588427 147.619090 -71.672304 -140.467689 -3.633216 3.562095 0.144500 0.002970 0.069630 0.119820 9.426602 8.363235 5.503243 31.652628 15.995643 4.298967 156.452612 55.403690 123.842679 2.125924 -1.837170 -0.030380 0.219850 -0.068220 -0.006650 
1.174700 16.573640 -2.310830 -3.102565 4.668654 -3.124132 -15.421293 11.015122 5.332911 22.872179 -1.249983 -42.528097 -10.823441 16.746046 43.143648 0.473921 9.667488 0.909013 0.396860 0.441200 0.189790 18.282014 -11.162173 1.198761 -24.366399 0.316620 -2.285079 7.068575 -11.069389 32.116542 -0.632293 -6.665818 1.893656 0.363630 0.076430 0.076060 -3.322004 0.620565 -8.083186 -0.244567 9.351241 20.496069 0.623327 10.119055 15.560668 0.688688 4.440239 -8.490386 6.804410 -5.504017 37.467604 6.538040 -4.663150 -12.528200 -8.102583 -5.202719 1.516109 -10.733439 -6.902876 -0.416668 154.950823 -70.842431 -149.230075 -3.596087 3.625658 0.143800 0.012280 0.068390 0.117590 6.964599 7.347717 5.891021 31.128779 15.253790 4.961260 159.742922 54.505689 128.884835 2.092429 -1.890823 -0.035120 0.222200 -0.068570 -0.014130 
1.181670 16.598050 -2.293380 -3.145681 4.985785 -2.953619 -15.391356 11.022875 5.255686 22.289832 -1.389282 -42.459882 -10.077428 16.245120 43.053233 0.427142 9.507054 0.957432 0.398970 0.441200 0.204920 18.299724 -11.278999 1.201759 -23.430354 0.154937 -1.871512 6.259297 -10.467363 31.113977 -0.604215 -6.482239 1.965296 0.368330 0.073570 0.080570 -3.391232 0.836409 -8.007603 0.065521 9.481919 19.931464 0.319367 10.262333 15.927382 1.078952 5.196030 -8.759372 8.372170 -6.148987 37.289870 6.135010 -4.569620 -12.481040 -7.029909 -5.531469 1.515537 -10.315475 -7.480526 -0.115455 160.025617 -69.392999 -155.135087 -3.576591 3.642443 0.142520 0.021080 0.068640 0.109630 5.235114 7.054015 6.170035 31.590603 15.731741 5.694822 160.521633 54.489256 130.277919 2.074910 -1.897241 -0.038040 0.221020 -0.068000 -0.023100 
1.184550 16.624610 -2.286450 -3.074510 5.576568 -2.659180 -15.366259 10.995714 5.175346 21.593156 -1.662751 -42.554788 -9.281761 15.711559 43.068211 0.383047 9.337514 1.006264 0.403010 0.445760 0.212070 18.317241 -11.352728 1.240005 -23.045617 -0.019702 -1.222261 6.212314 -10.186770 29.710438 -0.593790 -6.368877 2.010110 0.372500 0.067380 0.086720 -3.453837 1.028450 -7.952153 0.060940 9.671771 19.101168 0.234689 10.378534 16.295567 1.245093 5.985527 -9.114024 10.018833 -6.765076 37.682643 6.068200 -4.446180 -12.295710 -6.209662 -6.876001 1.767773 -9.702705 -8.878741 0.127420 160.657383 -68.772103 -155.573124 -3.565545 3.633881 0.146680 0.025260 0.073680 0.105670 4.242568 7.802995 6.423234 33.532217 17.355306 6.002759 159.407554 56.333998 129.681180 2.052663 -1.831962 -0.037430 0.214540 -0.067810 -0.029760 
1.187560 16.638620 -2.277970 -3.076500 5.968823 -2.306847 -15.359012 10.970136 5.140203 21.135122 -1.841631 -42.812686 -8.641776 15.312365 43.152133 0.363399 9.219523 1.044092 0.405270 0.449460 0.216700 18.322977 -11.413796 1.243605 -22.630241 -0.172573 -0.583847 5.599891 -9.722653 28.536585 -0.575438 -6.227545 2.068210 0.373720 0.062950 0.082960 -3.473219 1.166338 -7.908763 0.159777 10.070711 18.085445 0.927866 10.716364 16.431783 1.195881 6.448377 -9.372944 10.908615 -7.777044 38.660293 6.101060 -5.005340 -11.832470 -5.723038 -8.912670 2.191743 -10.227934 -11.399986 0.589194 163.645730 -68.873946 -159.571714 -3.535216 3.608557 0.141930 0.023470 0.075360 0.104360 4.002139 9.640780 6.415686 35.117080 19.806364 5.643103 154.836044 59.387179 124.612901 2.058964 -1.680985 -0.033730 0.214580 -0.071600 -0.027790 
1.179100 16.642520 -2.264080 -2.910235 6.209729 -1.961601 -15.356145 10.936926 5.105758 20.652908 -1.992589 -43.032805 -8.090767 15.071081 43.525689 0.357901 9.169946 1.057106 0.416140 0.467950 0.217740 18.325748 -11.465022 1.250233 -22.424064 -0.238669 0.033188 4.973114 -9.245062 27.300595 -0.565301 -6.091367 2.122345 0.382160 0.060720 0.080460 -3.479467 1.304548 -7.870462 -0.190033 10.620307 16.986708 1.528742 11.263718 15.966604 1.024644 6.926892 -9.348641 11.830516 -8.606611 39.840481 6.623610 -5.261660 -11.536850 -6.191332 -11.342846 2.605357 -10.987268 -14.639865 1.101137 163.737381 -69.822781 -159.882473 -3.525114 3.567188 0.143570 0.018390 0.083510 0.109760 4.933545 11.916994 5.900152 37.594240 22.756051 3.946082 137.151966 65.083031 104.273536 2.221724 -1.147789 -0.028390 0.218430 -0.077310 -0.022610 
1.179250 16.653180 -2.254190 -2.751912 6.659761 -1.946425 -15.351203 10.994052 4.979056 19.697691 -2.295798 -42.843909 -6.882430 14.297560 43.604063 0.323349 8.931865 1.132332 0.410510 0.456710 0.220220 18.310701 -11.516620 1.307969 -22.579675 -0.261916 0.592630 5.082883 -9.153329 26.435367 -0.565599 -6.063555 2.133988 0.371860 0.052850 0.074820 -3.466973 1.347568 -7.821125 -0.263145 11.100675 16.233188 2.150330 11.786455 15.411180 0.763610 7.434972 -9.609427 12.732797 -9.739466 42.224610 6.843380 -5.588770 -10.287100 -7.771028 -14.721880 3.000900 -11.824815 -18.326840 1.481374 164.794273 -71.860205 -161.820325 -3.519139 3.499246 0.149570 0.011350 0.088370 0.105480 7.016871 14.993995 5.919584 39.564114 26.619662 5.915876 103.087315 71.177203 66.204158 3.175889 -0.212250 -0.027910 0.213060 -0.077550 -0.025050 
1.180390 16.661860 -2.247060 -2.701601 7.013991 -2.183277 -15.373116 11.044457 4.959960 19.198633 -2.538477 -42.921596 -5.990560 13.931136 44.291897 0.321957 8.889202 1.139877 0.405460 0.446110 0.218450 18.264263 -11.550514 1.343843 -22.576300 -0.239642 0.738435 5.141446 -9.171496 26.526255 -0.575509 -6.065030 2.130486 0.360510 0.041000 0.064060 -3.371582 1.330679 -7.884936 -0.597354 11.769249 15.935799 3.470336 12.517973 14.769358 0.372667 7.384450 -10.158013 12.563061 -10.440781 44.963483 7.295320 -5.906590 -9.436710 -9.668543 -18.771980 3.659473 -14.435038 -21.669477 1.594082 169.696197 -74.837605 -169.115783 -3.468855 3.417194 0.172220 -0.008470 0.100980 0.102810 9.881379 19.482745 6.295821 40.203979 29.595657 5.981665 62.805301 65.146832 33.055002 2.393927 -1.720062 -0.031580 0.215870 -0.075020 -0.028060 
1.185870 16.653910 -2.233690 -2.756148 8.054823 -2.186614 -15.423188 11.057218 4.997382 18.478792 -2.936591 -43.652698 -4.915366 13.414830 44.995496 0.337260 8.804098 1.168701 0.392810 0.427190 0.201610 18.191698 -11.544906 1.416090 -22.442271 -0.209200 0.989803 5.973284 -9.436124 26.557839 -0.590870 -6.120978 2.113450 0.337440 0.031710 0.052100 -3.204099 1.300450 -8.021143 -0.783388 13.026795 16.160548 5.439727 13.830522 13.854809 -0.352002 7.223478 -11.285917 11.844558 -12.037936 46.855312 8.021240 -7.578840 -8.496910 -12.800561 -23.786984 4.400693 -17.254291 -25.863217 2.521095 172.046391 -76.141850 -172.350908 -3.428740 3.337808 0.179110 -0.031980 0.106350 0.103760 14.515334 25.176791 7.199018 40.111953 31.024112 3.582236 40.534640 49.113323 14.816082 2.196400 -1.695824 -0.023350 0.211140 -0.073630 -0.016380 
1.186250 16.628590 -2.222700 -2.703075 9.310500 -2.209858 -15.499991 11.081659 5.110191 17.707411 -3.456864 -44.820471 -3.692839 12.946568 46.129450 0.362453 8.792562 1.170471 0.384900 0.407610 0.189810 18.091315 -11.549744 1.436649 -22.140111 -0.139399 0.946268 6.116816 -9.625236 27.579886 -0.608222 -6.185137 2.087091 0.313880 0.011560 0.045920 -2.963558 1.219319 -8.189968 -0.899214 14.524931 16.792575 7.146481 15.351247 13.898800 -0.904260 6.497816 -13.383068 9.955837 -13.359539 48.370457 8.364760 -9.730390 -8.117710 -15.374957 -28.481318 4.698909 -21.997197 -29.958416 3.523232 179.897477 -78.561417 177.775343 -3.338498 3.216610 0.192920 -0.062980 0.116830 0.101950 18.354795 30.560799 9.458730 38.289747 32.063234 3.064981 27.621244 34.992053 6.626130 2.171612 -1.516732 -0.011350 0.201590 -0.071630 -0.006920 
